<?xml version="1.0" encoding="UTF-8"?>
<svg id="Layer_1" data-name="Layer 1" xmlns="http://www.w3.org/2000/svg" viewBox="0 0 64 64">
  <defs>
    <style>
      .cls-1 {
        fill: #212121;
      }

      .cls-1, .cls-2 {
        stroke-width: 0px;
      }

      .cls-2 {
        fill: #ffd000;
      }
    </style>
  </defs>
  <circle class="cls-2" cx="32" cy="32" r="32"/>
  <path class="cls-1" d="M53.34,32c-.1-2.58-2.26-4.59-4.84-4.5-1.15.04-2.24.51-3.06,1.3-3.64-2.48-7.92-3.84-12.32-3.94l2.08-9.98,6.85,1.44c.19,1.76,1.77,3.03,3.52,2.84,1.76-.19,3.03-1.77,2.84-3.52s-1.77-3.03-3.52-2.84c-1.01.1-1.92.69-2.42,1.57l-7.84-1.57c-.53-.12-1.07.21-1.19.76v.02l-2.36,11.1c-4.45.07-8.79,1.44-12.48,3.94-1.88-1.77-4.84-1.68-6.6.21-1.77,1.88-1.68,4.84.21,6.6.37.34.79.64,1.26.84-.03.47-.03.94,0,1.41,0,7.17,8.35,13,18.65,13s18.65-5.82,18.65-13c.03-.47.03-.94,0-1.41,1.61-.8,2.62-2.46,2.59-4.26ZM21.34,35.21c0-1.77,1.44-3.21,3.21-3.21s3.21,1.44,3.21,3.21-1.44,3.21-3.21,3.21c-1.77-.02-3.21-1.44-3.21-3.21ZM39.93,44c-2.27,1.71-5.06,2.59-7.91,2.47-2.85.12-5.63-.76-7.91-2.47-.3-.37-.25-.91.12-1.22.32-.26.77-.26,1.1,0,1.92,1.41,4.27,2.12,6.66,2.01,2.39.13,4.74-.56,6.69-1.95.35-.34.92-.33,1.26.02s.33.92-.02,1.26h0v-.13h0ZM39.36,38.52c-1.77,0-3.21-1.44-3.21-3.21s1.44-3.21,3.21-3.21,3.21,1.44,3.21,3.21c.07,1.77-1.3,3.25-3.07,3.32h-.16l.02-.12Z"/>
</svg>