<?xml version="1.0" encoding="UTF-8"?>
<svg id="Layer_1" data-name="Layer 1" xmlns="http://www.w3.org/2000/svg" viewBox="0 0 64 64">
  <defs>
    <style>
      .cls-1 {
        fill: #212121;
      }

      .cls-1, .cls-2 {
        stroke-width: 0px;
      }

      .cls-2 {
        fill: #ffd000;
      }
    </style>
  </defs>
  <circle class="cls-1" cx="32" cy="32" r="32"/>
  <g id="_112-gmail_email_mail" data-name="112-gmail, email, mail">
    <path class="cls-2" d="M12.5,51.05c-3.03,0-5.5-2.47-5.5-5.51v-27.07c0-3.04,2.47-5.51,5.5-5.51h39c3.03,0,5.5,2.47,5.5,5.51v27.07c0,3.04-2.47,5.51-5.5,5.51H12.5Z"/>
    <rect class="cls-2" x="14" y="13.95" width="36" height="36.1"/>
    <path class="cls-1" d="M51.5,13.95h-1.5l-18,14.25L14,13.95h-1.5c-2.48,0-4.5,2.02-4.5,4.51v27.07c0,2.49,2.02,4.51,4.5,4.51h1.5v-28.14l18,13.88,18-13.89v28.14h1.5c2.48,0,4.5-2.02,4.5-4.51v-27.07c0-2.49-2.02-4.51-4.5-4.51h0Z"/>
  </g>
</svg>