<?xml version="1.0" encoding="UTF-8"?>
<svg id="Layer_1" data-name="Layer 1" xmlns="http://www.w3.org/2000/svg" viewBox="0 0 64 64">
  <defs>
    <style>
      .cls-1 {
        fill: #212121;
      }

      .cls-1, .cls-2 {
        stroke-width: 0px;
      }

      .cls-2 {
        fill: #ffd000;
      }
    </style>
  </defs>
  <circle class="cls-2" cx="32" cy="32" r="32"/>
  <path class="cls-1" d="M55.95,19.97c-.58-2.15-2.27-3.84-4.42-4.42-3.9-1.05-19.53-1.05-19.53-1.05,0,0-15.64,0-19.53,1.05-2.15.58-3.84,2.27-4.42,4.42-1.05,3.9-1.05,12.03-1.05,12.03,0,0,0,8.14,1.05,12.03.58,2.15,2.27,3.84,4.42,4.42,3.9,1.05,19.53,1.05,19.53,1.05,0,0,15.64,0,19.53-1.05,2.15-.58,3.84-2.27,4.42-4.42,1.05-3.9,1.05-12.03,1.05-12.03,0,0,0-8.14-1.05-12.03Z"/>
  <path class="cls-2" d="M27,39.5l12.99-7.5-12.99-7.5v15Z"/>
</svg>